<svg width="39" height="40" viewBox="0 0 39 40" fill="none" xmlns="http://www.w3.org/2000/svg">
<path d="M19.5 39.7467C30.2696 39.7467 39 31.0163 39 20.2467C39 9.47721 30.2696 0.746765 19.5 0.746765C8.73045 0.746765 0 9.47721 0 20.2467C0 31.0163 8.73045 39.7467 19.5 39.7467Z" fill="#FFC200"/>
<path fill-rule="evenodd" clip-rule="evenodd" d="M33.1861 34.1354C29.5061 37.7627 24.5367 39.7808 19.3696 39.7463C14.2026 39.7119 9.26049 37.6278 5.62915 33.9518C6.09356 32.6675 6.99556 31.5878 8.17678 30.9024C8.9729 30.3138 9.83616 29.8219 10.7484 29.4371C9.3613 24.6706 13.1319 22.3275 14.5746 21.6528C14.5746 23.8534 16.635 22.3931 19.1921 22.4209C21.2974 22.4442 25.4605 24.5633 25.4605 21.7677C27.7766 22.453 30.3008 26.8667 28.5635 29.5784C29.2758 29.9267 29.9488 30.3503 30.5709 30.8418C31.7872 31.6158 32.7082 32.7753 33.1861 34.1354Z" fill="#677079"/>
<path fill-rule="evenodd" clip-rule="evenodd" d="M15.1659 25.1565L24.5814 25.2133V27.3823L24.577 27.4158C24.5705 27.514 24.5557 27.6115 24.5328 27.7073L24.5013 27.9225L24.4823 27.9673C23.8727 31.1694 21.2052 32.4069 19.5581 33.2689C17.8227 32.3236 15.3691 30.6203 15.1741 27.607L15.1659 27.5698V27.4435C15.1645 27.4 15.1637 27.3565 15.1633 27.3129C15.1633 27.3356 15.1652 27.3571 15.1659 27.3798V25.1565Z" fill="#F9DCA4"/>
<path opacity="0.11" fill-rule="evenodd" clip-rule="evenodd" d="M24.5821 25.1168V27.6442C24.5802 27.8785 24.5602 28.1123 24.5221 28.3434C24.4743 28.6296 24.3939 28.9093 24.2823 29.1771C21.0108 31.6477 15.7982 29.6214 14.9658 25.4014L24.5821 25.1168Z" fill="black"/>
<path fill-rule="evenodd" clip-rule="evenodd" d="M11.425 16.6718C8.3075 17.4733 10.958 21.2723 12.9187 21.2559C12.128 19.8393 11.6207 18.2823 11.425 16.6718Z" fill="#F9DCA4"/>
<path fill-rule="evenodd" clip-rule="evenodd" d="M27.6643 16.6718C30.7818 17.4733 28.1313 21.2723 26.1699 21.2553C26.9609 19.8389 27.4684 18.2822 27.6643 16.6718Z" fill="#F9DCA4"/>
<path fill-rule="evenodd" clip-rule="evenodd" d="M19.3947 7.91637C32.3461 7.91637 27.2988 28.392 19.3947 28.392C11.9291 28.392 6.44323 7.91637 19.3947 7.91637Z" fill="#FFE8BE"/>
<path fill-rule="evenodd" clip-rule="evenodd" d="M13.2821 14.6965C13.3926 14.8176 13.4746 14.962 13.5219 15.1189C13.5693 15.2759 13.5808 15.4415 13.5558 15.6035C13.5307 15.7655 13.4697 15.9198 13.3771 16.0551C13.2845 16.1904 13.1628 16.3032 13.0209 16.3853C12.1058 17.1382 12.0724 19.7634 12.0724 19.7634C11.719 19.4125 11.7272 17.5332 10.9611 16.4471C10.1949 15.3611 9.67872 7.76172 13.9631 4.99827C13.6998 5.30793 13.51 5.6732 13.4081 6.06665C13.3061 6.46011 13.2945 6.87155 13.3743 7.27012C13.3743 7.27012 16.3504 3.00219 21.2879 3.12525C20.8964 3.33869 20.5544 3.6322 20.284 3.98668C20.0135 4.34115 19.8208 4.74862 19.7184 5.18254C19.7184 5.18254 24.0349 3.40166 27.632 5.52016C26.6968 5.77865 25.8123 6.19412 25.0162 6.74885C26.763 6.79681 28.4512 7.12118 29.724 8.25332C29.4501 8.34127 29.1965 8.48323 28.9784 8.67081C28.7602 8.85839 28.5819 9.08779 28.4539 9.34546C28.3259 9.60312 28.2508 9.88383 28.2331 10.171C28.2154 10.4582 28.2554 10.746 28.3508 11.0174C28.891 13.228 28.9415 15.2847 28.4183 16.3903C27.8952 17.496 27.6484 16.7822 27.3209 19.1008C27.3049 19.2574 27.2526 19.4082 27.1683 19.5411C27.0839 19.6741 26.9698 19.7856 26.835 19.8669C26.8224 20.0348 27.0761 17.4966 26.4216 16.8207C25.7678 16.1455 26.1787 15.3156 26.4399 14.8247C28.2637 11.3998 22.8018 9.84804 19.8162 9.85182C17.2269 9.85498 10.9812 11.0319 13.2821 14.6965Z" fill="#8A5C42"/>
<path fill-rule="evenodd" clip-rule="evenodd" d="M12.4888 31.7714C12.5077 31.7954 19.0633 40.2801 26.7699 31.6452C25.8391 34.2023 21.8242 36.2331 19.5277 36.2268C15.1418 36.2141 12.7147 32.6928 12.4888 31.7714Z" fill="#434955"/>
<path fill-rule="evenodd" clip-rule="evenodd" d="M22.9306 39.4459C22.6719 39.4913 22.4119 39.5311 22.15 39.567V33.9272C22.1596 33.8327 22.2058 33.7458 22.2787 33.6849C22.3515 33.624 22.4453 33.5941 22.54 33.6015C22.6348 33.594 22.7287 33.6238 22.8017 33.6847C22.8748 33.7455 22.921 33.8326 22.9306 33.9272V39.4459ZM16.7335 39.5506C16.4718 39.5132 16.2116 39.4711 15.9529 39.4244V33.9272C15.9625 33.8327 16.0087 33.7458 16.0815 33.6849C16.1544 33.624 16.2482 33.5941 16.3429 33.6015C16.4377 33.5938 16.5319 33.6235 16.605 33.6844C16.6782 33.7453 16.7245 33.8325 16.7341 33.9272L16.7335 39.5506Z" fill="#E6E6E6"/>
</svg>
