<svg width="35" height="35" viewBox="0 0 35 35" fill="none" xmlns="http://www.w3.org/2000/svg">
<g clip-path="url(#clip0_65_702)">
<path d="M12.0312 13.6719H9.84375V29.5312H12.0312V13.6719Z" fill="#506C7F"/>
<path d="M18.5938 13.6719H16.4062V29.5312H18.5938V13.6719Z" fill="#506C7F"/>
<path d="M25.1562 13.6719H22.9688V29.5312H25.1562V13.6719Z" fill="#506C7F"/>
<path d="M28.4375 13.6719H26.25V29.5312H28.4375V13.6719Z" fill="#B4CCB9"/>
<path d="M15.3125 13.6719H13.125V29.5312H15.3125V13.6719Z" fill="#B4CCB9"/>
<path d="M21.875 13.6719H19.6875V29.5312H21.875V13.6719Z" fill="#B4CCB9"/>
<path d="M8.75 13.6719H6.5625V29.5312H8.75V13.6719Z" fill="#B4CCB9"/>
<path d="M4.375 30.625C3.77125 30.625 3.28125 31.115 3.28125 31.7188H31.7188C31.7188 31.115 31.2293 30.625 30.625 30.625H4.375Z" fill="#F9EBB2"/>
<path d="M32.8125 32.8125H2.1875C1.58375 32.8125 1.09375 33.3025 1.09375 33.9062H33.9062C33.9062 33.3025 33.4168 32.8125 32.8125 32.8125Z" fill="#F9EBB2"/>
<path d="M2.18783 12.5781H32.8128C33.3012 12.5781 33.7338 12.2495 33.8661 11.7791C33.9974 11.3088 33.7977 10.803 33.3799 10.5498L18.0674 1.25289C17.8968 1.14844 17.6999 1.09375 17.5003 1.09375C17.2996 1.09375 17.1038 1.14844 16.9332 1.25234L1.61962 10.5498C1.20181 10.803 1.0022 11.3088 1.134 11.7786C1.26634 12.2495 1.69947 12.5781 2.18783 12.5781Z" fill="#F9EBB2"/>
<path d="M32.8125 31.7188C32.8125 30.5107 31.833 29.5312 30.625 29.5312H29.5313V13.6719H32.8125C33.7941 13.6719 34.6549 13.0189 34.9191 12.0739C35.1838 11.1289 34.7867 10.1237 33.9484 9.61461L18.6359 0.317734C18.287 0.105547 17.8932 0 17.5 0C17.1068 0 16.7136 0.105547 16.3647 0.317734L1.05219 9.61461C0.213828 10.1237 -0.18375 11.1295 0.0814844 12.0739C0.345625 13.0189 1.20695 13.6719 2.1875 13.6719H5.46875V29.5312H4.375C3.16695 29.5312 2.1875 30.5107 2.1875 31.7188C0.979453 31.7188 0 32.6982 0 33.9062V35H35V33.9062C35 32.6982 34.0205 31.7188 32.8125 31.7188ZM2.1875 12.5781C1.69914 12.5781 1.26602 12.2495 1.13422 11.7786C1.00242 11.3088 1.20203 10.803 1.61984 10.5498L16.9323 1.25234C17.1035 1.14844 17.3004 1.09375 17.5 1.09375C17.7007 1.09375 17.8965 1.14844 18.0682 1.25289L33.3807 10.5498C33.7985 10.803 33.9981 11.3088 33.8658 11.7791C33.7345 12.2495 33.3009 12.5781 32.8125 12.5781H2.1875ZM28.4375 13.6719V29.5312H26.25V13.6719H28.4375ZM25.1563 13.6719V29.5312H22.9688V13.6719H25.1563ZM21.875 13.6719V29.5312H19.6875V13.6719H21.875ZM18.5938 13.6719V29.5312H16.4063V13.6719H18.5938ZM15.3125 13.6719V29.5312H13.125V13.6719H15.3125ZM12.0313 13.6719V29.5312H9.84375V13.6719H12.0313ZM8.75 13.6719V29.5312H6.5625V13.6719H8.75ZM4.375 30.625H30.625C31.2293 30.625 31.7188 31.115 31.7188 31.7188H3.28125C3.28125 31.115 3.77125 30.625 4.375 30.625ZM1.09375 33.9062C1.09375 33.3025 1.58375 32.8125 2.1875 32.8125H32.8125C33.4168 32.8125 33.9063 33.3025 33.9063 33.9062H1.09375Z" fill="#394240"/>
<path d="M17.5 4.92188C15.9895 4.92188 14.7656 6.14578 14.7656 7.65625C14.7656 9.16672 15.9895 10.3906 17.5 10.3906C19.0105 10.3906 20.2344 9.16672 20.2344 7.65625C20.2344 6.14578 19.0105 4.92188 17.5 4.92188ZM17.5 9.29688C16.5944 9.29688 15.8594 8.56242 15.8594 7.65625C15.8594 6.75008 16.5944 6.01562 17.5 6.01562C18.4067 6.01562 19.1406 6.75008 19.1406 7.65625C19.1406 8.56242 18.4067 9.29688 17.5 9.29688Z" fill="#394240"/>
<path d="M17.5 9.29688C18.4061 9.29688 19.1406 8.56234 19.1406 7.65625C19.1406 6.75016 18.4061 6.01562 17.5 6.01562C16.5939 6.01562 15.8594 6.75016 15.8594 7.65625C15.8594 8.56234 16.5939 9.29688 17.5 9.29688Z" fill="#F76D57"/>
</g>
<defs>
<clipPath id="clip0_65_702">
<rect width="35" height="35" fill="white"/>
</clipPath>
</defs>
</svg>
