<svg width="40" height="40" viewBox="0 0 40 40" fill="none" xmlns="http://www.w3.org/2000/svg">
<path d="M10.4996 8.33333H35L31.6667 20H12.2945M33.3333 26.6667H13.3333L10 5H5M15 33.3333C15 34.2538 14.2538 35 13.3333 35C12.4129 35 11.6667 34.2538 11.6667 33.3333C11.6667 32.4128 12.4129 31.6667 13.3333 31.6667C14.2538 31.6667 15 32.4128 15 33.3333ZM33.3333 33.3333C33.3333 34.2538 32.5872 35 31.6667 35C30.7462 35 30 34.2538 30 33.3333C30 32.4128 30.7462 31.6667 31.6667 31.6667C32.5872 31.6667 33.3333 32.4128 33.3333 33.3333Z" stroke="#116839" stroke-width="3" stroke-linecap="round" stroke-linejoin="round"/>
</svg>
