<svg width="22" height="22" viewBox="0 0 22 22" fill="none" xmlns="http://www.w3.org/2000/svg">
<g clip-path="url(#clip0_110_719)">
<path d="M10.9595 6.57585C12.3783 6.57585 13.5284 5.4257 13.5284 4.00692C13.5284 2.58814 12.3783 1.43799 10.9595 1.43799C9.54071 1.43799 8.39056 2.58814 8.39056 4.00692C8.39056 5.4257 9.54071 6.57585 10.9595 6.57585Z" fill="#606060"/>
<path d="M19.9522 11.0746L17.5579 10.5752C16.7422 10.4043 15.9369 10.7782 15.5111 11.4428C15.0976 11.2304 14.6529 11.0473 14.1799 10.8953V9.47153C14.1809 8.39431 13.299 7.51343 12.2256 7.51343H9.77751C8.69841 7.51343 7.82038 8.39431 7.82038 9.47153V10.9028C7.3521 11.052 6.91214 11.2351 6.49577 11.4485C6.07 10.781 5.2637 10.4043 4.44703 10.5752L2.05085 11.0746C0.999101 11.2946 0.316492 12.3379 0.536471 13.3934L1.13789 16.2663C1.35599 17.319 2.40016 18.0016 3.45288 17.7816L4.21099 17.623C4.5905 18.1838 5.11546 18.6983 5.78765 19.1383C7.18775 20.056 9.03731 20.562 11.0001 20.562C14.0033 20.562 16.5902 19.3545 17.7817 17.6202L18.5521 17.7816C19.6038 18.0006 20.648 17.319 20.8661 16.2663L21.4684 13.3934C21.6875 12.3379 21.0048 11.2946 19.9522 11.0746ZM10.9991 19.5811C9.22608 19.5811 7.56442 19.1345 6.32482 18.3179C5.89996 18.0403 5.5478 17.7316 5.26554 17.4011L5.84617 17.2793C6.8998 17.0603 7.58241 16.0171 7.36243 14.9634L6.82334 12.3803C7.13772 12.2113 7.46817 12.0631 7.81937 11.9366V12.4077C7.81937 13.4831 8.69929 14.3639 9.77651 14.3639H12.2246C13.299 14.3639 14.1789 13.4821 14.1789 12.4077V11.912C14.5367 12.0395 14.8728 12.1859 15.1844 12.352L14.6378 14.9644C14.4197 16.018 15.1013 17.0613 16.1549 17.2803L16.7412 17.403C15.648 18.6974 13.485 19.5811 10.9991 19.5811Z" fill="#606060"/>
<path d="M19.4311 9.95305C20.8498 9.95305 22 8.8029 22 7.38412C22 5.96533 20.8498 4.81519 19.4311 4.81519C18.0123 4.81519 16.8621 5.96533 16.8621 7.38412C16.8621 8.8029 18.0123 9.95305 19.4311 9.95305Z" fill="#606060"/>
<path d="M3.09596 9.8992C4.48569 9.60841 5.37317 8.24608 5.08614 6.85727C4.79346 5.46942 3.43394 4.57817 2.04324 4.86897C0.655398 5.1588 -0.235854 6.52021 0.0549423 7.90902C0.344819 9.29875 1.70623 10.1891 3.09596 9.8992Z" fill="#606060"/>
</g>
<defs>
<clipPath id="clip0_110_719">
<rect width="22" height="22" fill="white"/>
</clipPath>
</defs>
</svg>
