<svg width="77" height="77" viewBox="0 0 77 77" fill="none" xmlns="http://www.w3.org/2000/svg">
<path d="M51.4258 6.80685C51.2729 7.76271 51.1964 8.71856 51.1964 9.67442C51.1964 18.2771 58.1552 25.232 66.7197 25.232C67.6756 25.232 68.5933 25.1211 69.5491 24.9681V55.8194C69.5491 68.7846 61.9022 76.4697 48.9023 76.4697H20.6506C7.64696 76.4697 0 68.7846 0 55.8194V27.5298C0 14.5302 7.64696 6.80685 20.6506 6.80685H51.4258ZM52.1943 30.0533C51.1582 29.9386 50.1297 30.3974 49.5141 31.2386L40.2651 43.2059L29.6702 34.8708C29.0202 34.3738 28.2555 34.1788 27.4908 34.2591C26.73 34.3738 26.0417 34.7905 25.5791 35.4023L14.2654 50.1263L14.0322 50.4704C13.3822 51.6901 13.6881 53.2577 14.8351 54.1027C15.3704 54.4468 15.9439 54.6762 16.5939 54.6762C17.4771 54.7144 18.3145 54.2518 18.8498 53.5291L28.4467 41.1757L39.3436 49.3616L39.6877 49.5872C40.9112 50.2372 42.4406 49.9351 43.32 48.7843L54.3699 34.5267L54.217 34.6032C54.8287 33.762 54.9434 32.6915 54.5228 31.7356C54.1061 30.7797 53.1846 30.1298 52.1943 30.0533ZM67.2554 0C72.3406 0 76.47 4.1293 76.47 9.21446C76.47 14.2996 72.3406 18.4289 67.2554 18.4289C62.1702 18.4289 58.0408 14.2996 58.0408 9.21446C58.0408 4.1293 62.1702 0 67.2554 0Z" fill="#FF6624"/>
</svg>
