<svg width="722" height="259" viewBox="0 0 722 259" fill="none" xmlns="http://www.w3.org/2000/svg">
<path d="M0 148.317C8.8112 148.317 13.7513 158.548 22.5625 158.548C31.3737 158.548 36.3138 155.758 45.125 155.758C53.9362 155.758 58.8763 178.081 67.6875 178.081C76.4987 178.081 81.4388 163.199 90.25 163.199C99.0612 163.199 104.001 133.435 112.812 133.435C121.624 133.435 126.564 142.737 135.375 142.737C144.186 142.737 149.126 152.968 157.937 152.968C166.749 152.968 171.689 125.995 180.5 125.995C189.311 125.995 194.251 100.882 203.062 100.882C211.874 100.882 216.814 123.204 225.625 123.204C234.436 123.204 239.376 148.317 248.187 148.317C256.999 148.317 261.939 160.409 270.75 160.409C279.561 160.409 284.501 140.876 293.312 140.876C302.124 140.876 307.064 151.108 315.875 151.108C324.686 151.108 329.626 141.806 338.437 141.806C347.249 141.806 352.189 125.995 361 125.995C369.811 125.995 374.751 148.317 383.562 148.317C392.374 148.317 397.314 142.737 406.125 142.737C414.936 142.737 419.876 133.435 428.687 133.435C437.499 133.435 442.439 140.876 451.25 140.876C460.061 140.876 465.001 155.758 473.812 155.758C482.624 155.758 487.564 134.366 496.375 134.366C505.186 134.366 510.126 139.016 518.937 139.016C527.749 139.016 532.689 108.323 541.5 108.323C550.311 108.323 555.251 86 564.062 86C572.874 86 577.814 153.898 586.625 153.898C595.436 153.898 600.376 140.876 609.187 140.876C617.999 140.876 622.939 135.296 631.75 135.296C640.561 135.296 645.501 160.409 654.312 160.409C663.124 160.409 668.064 162.269 676.875 162.269C685.686 162.269 690.626 129.715 699.437 129.715C708.249 129.715 713.189 113.903 722 113.903" stroke="#F86624" stroke-width="2.5"/>
<path d="M0 122.248C8.8112 122.248 13.7513 132.767 22.5625 132.767C31.3737 132.767 36.3138 129.898 45.125 129.898C53.9362 129.898 58.8763 152.85 67.6875 152.85C76.4987 152.85 81.4388 137.549 90.25 137.549C99.0612 137.549 104.001 145.199 112.812 145.199C121.624 145.199 126.564 108.859 135.375 108.859C144.186 108.859 149.126 134.68 157.937 134.68C166.749 134.68 171.689 152.85 180.5 152.85C189.311 152.85 194.251 142.33 203.062 142.33C211.874 142.33 216.814 127.029 225.625 127.029C234.436 127.029 239.376 122.248 248.187 122.248C256.999 122.248 261.939 111.728 270.75 111.728C279.561 111.728 284.501 122.248 293.312 122.248C302.124 122.248 307.064 117.466 315.875 117.466C324.686 117.466 329.626 107.903 338.437 107.903C347.249 107.903 352.189 91.6456 361 91.6456C369.811 91.6456 374.751 122.248 383.562 122.248C392.374 122.248 397.314 101.209 406.125 101.209C414.936 101.209 419.876 106.947 428.687 106.947C437.499 106.947 442.439 114.597 451.25 114.597C460.061 114.597 465.001 106.947 473.812 106.947C482.624 106.947 487.564 62 496.375 62C505.186 62 510.126 89.733 518.937 89.733C527.749 89.733 532.689 119.379 541.5 119.379C550.311 119.379 555.251 134.68 564.062 134.68C572.874 134.68 577.814 127.985 586.625 127.985C595.436 127.985 600.376 145.199 609.187 145.199C617.999 145.199 622.939 170.063 631.75 170.063C640.561 170.063 645.501 149.981 654.312 149.981C663.124 149.981 668.064 121.291 676.875 121.291C685.686 121.291 690.626 149.024 699.437 149.024C708.249 149.024 713.189 132.767 722 132.767" stroke="#5D5FEF" stroke-width="2.5"/>
</svg>
