<svg width="40" height="36" viewBox="0 0 40 36" fill="none" xmlns="http://www.w3.org/2000/svg">
<g clip-path="url(#clip0_65_822)">
<path d="M9.16277 5.54596H38.4646C38.9962 5.54596 39.4027 5.91184 39.4027 6.3903V22.7987C39.4027 23.2772 38.9962 23.643 38.4646 23.643H9.16277C8.63114 23.643 8.22461 23.2772 8.22461 22.7987V6.3903C8.22461 5.91184 8.63114 5.54596 9.16277 5.54596Z" fill="#9DBE87"/>
<path d="M38.464 24.2059H9.16223C8.28662 24.2059 7.59863 23.5867 7.59863 22.7987V6.3903C7.59863 5.60225 8.28662 4.98306 9.16223 4.98306H38.464C39.3397 4.98306 40.0276 5.60225 40.0276 6.3903V22.7987C40.0276 23.5586 39.3397 24.2059 38.464 24.2059ZM9.16223 6.10885C8.9746 6.10885 8.84951 6.22143 8.84951 6.3903V22.7987C8.84951 22.9676 8.9746 23.0801 9.16223 23.0801H38.464C38.6517 23.0801 38.7768 22.9676 38.7768 22.7987V6.3903C38.7768 6.22143 38.6517 6.10885 38.464 6.10885H9.16223Z" fill="#131313"/>
<path d="M6.50456 7.93826H35.8377C36.3693 7.93826 36.7758 8.30414 36.7758 8.78261V25.191C36.7758 25.6695 36.3693 26.0353 35.8377 26.0353H6.50456C5.97294 26.0353 5.56641 25.6695 5.56641 25.191V8.78261C5.56641 8.30414 5.97294 7.93826 6.50456 7.93826Z" fill="#9DBE87"/>
<path d="M35.8068 26.5982H6.505C5.62939 26.5982 4.94141 25.979 4.94141 25.191V8.7826C4.94141 7.99455 5.62939 7.37537 6.505 7.37537H35.8381C36.7137 7.37537 37.4017 7.99455 37.4017 8.7826V25.191C37.3704 25.9509 36.6824 26.5982 35.8068 26.5982ZM6.505 8.50116C6.31737 8.50116 6.19228 8.61374 6.19228 8.7826V25.191C6.19228 25.3599 6.31737 25.4724 6.505 25.4724H35.8381C36.0257 25.4724 36.1508 25.3599 36.1508 25.191V8.7826C36.1508 8.61374 36.0257 8.50116 35.8381 8.50116H6.505Z" fill="#131313"/>
<path d="M4.06511 10.2743H33.3982C33.9298 10.2743 34.3364 10.6401 34.3364 11.1186V27.527C34.3364 28.0055 33.9298 28.3713 33.3982 28.3713H4.06511C3.53349 28.3713 3.12695 28.0055 3.12695 27.527V11.1186C3.12695 10.6683 3.53349 10.2743 4.06511 10.2743Z" fill="#9DBE87"/>
<path d="M33.3986 28.9342H4.06555C3.18994 28.9342 2.50195 28.315 2.50195 27.527V11.1186C2.50195 10.3305 3.18994 9.71136 4.06555 9.71136H33.3986C34.2743 9.71136 34.9622 10.3305 34.9622 11.1186V27.527C34.9622 28.2869 34.243 28.9342 33.3986 28.9342ZM4.06555 10.8372C3.87792 10.8372 3.75283 10.9497 3.75283 11.1186V27.527C3.75283 27.6959 3.87792 27.8084 4.06555 27.8084H33.3986C33.5863 27.8084 33.7114 27.6959 33.7114 27.527V11.1186C33.7114 10.9497 33.5863 10.8372 33.3986 10.8372H4.06555Z" fill="#131313"/>
<path d="M1.56316 12.357H30.8962C31.4279 12.357 31.8344 12.7228 31.8344 13.2013V29.6097C31.8344 30.0882 31.4279 30.454 30.8962 30.454H1.56316C1.03154 30.454 0.625 30.0882 0.625 29.6097V13.2013C0.625 12.751 1.03154 12.357 1.56316 12.357Z" fill="#9DBE87"/>
<path d="M30.8967 31.0169H1.5636C0.687983 31.0169 0 30.3977 0 29.6097V13.2013C0 12.4133 0.687983 11.7941 1.5636 11.7941H30.8967C31.7723 11.7941 32.4603 12.4133 32.4603 13.2013V29.6097C32.4603 30.3977 31.741 31.0169 30.8967 31.0169ZM1.5636 12.9199C1.37597 12.9199 1.25088 13.0324 1.25088 13.2013V29.6097C1.25088 29.7786 1.37597 29.8911 1.5636 29.8911H30.8967C31.0843 29.8911 31.2094 29.7786 31.2094 29.6097V13.2013C31.2094 13.0324 31.0843 12.9199 30.8967 12.9199H1.5636Z" fill="#131313"/>
<path d="M26.9564 27.921H5.50384C5.50384 26.5982 4.28423 25.5006 2.81445 25.5006V17.0009C4.28423 17.0009 5.50384 15.9032 5.50384 14.5804H26.9564C26.9564 15.9032 28.176 17.0009 29.6458 17.0009V25.5006C28.1447 25.5006 26.9564 26.5982 26.9564 27.921Z" fill="#D6F0C5"/>
<path d="M26.9568 28.4839H5.50428C5.16029 28.4839 4.87884 28.2306 4.87884 27.921C4.87884 26.9078 3.94068 26.0635 2.81489 26.0635C2.4709 26.0635 2.18945 25.8102 2.18945 25.5006V17.0009C2.18945 16.6913 2.4709 16.438 2.81489 16.438C3.94068 16.438 4.87884 15.5936 4.87884 14.5804C4.87884 14.2708 5.16029 14.0175 5.50428 14.0175H26.9568C27.3008 14.0175 27.5823 14.2708 27.5823 14.5804C27.5823 15.5936 28.5204 16.438 29.6462 16.438C29.9902 16.438 30.2717 16.6913 30.2717 17.0009V25.5006C30.2717 25.8102 29.9902 26.0635 29.6462 26.0635C28.5204 26.0635 27.5823 26.9078 27.5823 27.921C27.5823 28.2306 27.3008 28.4839 26.9568 28.4839ZM6.06718 27.3581H26.3627C26.6128 26.1761 27.6761 25.2191 28.9895 24.994V17.5075C27.6761 17.2823 26.6128 16.3254 26.3627 15.1433H6.06718C5.817 16.3254 4.75375 17.2823 3.44033 17.5075V24.9658C4.75375 25.2191 5.817 26.1761 6.06718 27.3581Z" fill="#131313"/>
<path d="M16.2931 25.0784C15.2924 25.0784 14.2292 24.7407 13.4786 23.8682C13.2597 23.6149 13.3223 23.2771 13.5724 23.0801C13.8539 22.8831 14.2292 22.9394 14.4481 23.1646C15.1986 24.037 16.3556 24.0652 17.1062 23.84C17.7316 23.643 18.1069 23.2771 18.1069 22.8831C18.1069 22.5172 17.1374 22.2639 16.2931 22.0388C14.9797 21.6729 13.3223 21.2507 13.3223 19.8435C13.3223 19.168 13.7913 18.5488 14.6044 18.1829C15.6051 17.7326 17.2938 17.5637 18.8887 18.6051C19.1701 18.8021 19.2327 19.1399 19.0138 19.3932C18.7949 19.6465 18.4196 19.7028 18.1381 19.5057C17.0749 18.8021 15.8866 18.8303 15.1673 19.168C14.792 19.3369 14.5419 19.5902 14.5419 19.8435C14.5419 20.3782 15.4175 20.6315 16.6058 20.9693C17.888 21.307 19.2952 21.701 19.2952 22.8831C19.2952 23.7556 18.576 24.5436 17.4502 24.9095C17.1374 24.994 16.6996 25.0784 16.2931 25.0784Z" fill="#131313"/>
<path d="M16.2299 18.9428C15.8859 18.9428 15.6045 18.6895 15.6045 18.3799V17.1416C15.6045 16.832 15.8859 16.5787 16.2299 16.5787C16.5739 16.5787 16.8554 16.832 16.8554 17.1416V18.3799C16.8554 18.7177 16.5739 18.9428 16.2299 18.9428Z" fill="#131313"/>
<path d="M16.2299 26.1479C15.8859 26.1479 15.6045 25.8946 15.6045 25.585V24.6562C15.6045 24.3467 15.8859 24.0934 16.2299 24.0934C16.5739 24.0934 16.8554 24.3467 16.8554 24.6562V25.585C16.8554 25.8946 16.5739 26.1479 16.2299 26.1479Z" fill="#131313"/>
<path d="M6.91113 21.5884C6.91113 21.7252 6.94106 21.8606 6.99921 21.987C7.05736 22.1133 7.14259 22.2281 7.25003 22.3248C7.35747 22.4215 7.48503 22.4982 7.62541 22.5505C7.76579 22.6029 7.91625 22.6298 8.0682 22.6298C8.22014 22.6298 8.3706 22.6029 8.51098 22.5505C8.65136 22.4982 8.77892 22.4215 8.88636 22.3248C8.9938 22.2281 9.07903 22.1133 9.13718 21.987C9.19533 21.8606 9.22526 21.7252 9.22526 21.5884C9.22526 21.3123 9.10335 21.0474 8.88636 20.8521C8.66937 20.6568 8.37507 20.5471 8.0682 20.5471C7.76132 20.5471 7.46702 20.6568 7.25003 20.8521C7.03304 21.0474 6.91113 21.3123 6.91113 21.5884Z" fill="#AECD99"/>
<path d="M8.06863 23.1646C7.0992 23.1646 6.28613 22.4609 6.28613 21.5603C6.28613 20.6597 7.06793 19.9561 8.06863 19.9561C9.03806 19.9561 9.85113 20.6597 9.85113 21.5603C9.85113 22.4609 9.03806 23.1646 8.06863 23.1646ZM8.06863 21.11C7.78719 21.11 7.53701 21.307 7.53701 21.5885C7.53701 21.8699 7.75591 22.0669 8.06863 22.0669C8.35008 22.0669 8.60026 21.8699 8.60026 21.5885C8.60026 21.307 8.35008 21.11 8.06863 21.11Z" fill="#131313"/>
<path d="M23.2979 21.5884C23.2979 21.8646 23.4198 22.1295 23.6367 22.3248C23.8537 22.5201 24.148 22.6298 24.4549 22.6298C24.7618 22.6298 25.0561 22.5201 25.2731 22.3248C25.4901 22.1295 25.612 21.8646 25.612 21.5884C25.612 21.3123 25.4901 21.0474 25.2731 20.8521C25.0561 20.6568 24.7618 20.5471 24.4549 20.5471C24.148 20.5471 23.8537 20.6568 23.6367 20.8521C23.4198 21.0474 23.2979 21.3123 23.2979 21.5884Z" fill="#AECD99"/>
<path d="M24.4544 23.1646C23.4849 23.1646 22.6719 22.4609 22.6719 21.5603C22.6719 20.6597 23.4537 19.9561 24.4544 19.9561C25.4238 19.9561 26.2369 20.6597 26.2369 21.5603C26.2369 22.4609 25.4238 23.1646 24.4544 23.1646ZM24.4544 21.11C24.1729 21.11 23.9228 21.307 23.9228 21.5885C23.9228 21.8699 24.1417 22.0669 24.4544 22.0669C24.7671 22.0669 24.986 21.8699 24.986 21.5885C24.986 21.307 24.7358 21.11 24.4544 21.11Z" fill="#131313"/>
</g>
<defs>
<clipPath id="clip0_65_822">
<rect width="40" height="36" fill="white"/>
</clipPath>
</defs>
</svg>
