<svg width="390" height="331" viewBox="0 0 390 331" fill="none" xmlns="http://www.w3.org/2000/svg">
<path d="M378.5 53.5C378.5 67.7835 370.009 80.7713 356.166 90.21C342.325 99.647 323.176 105.5 302 105.5C280.824 105.5 261.675 99.647 247.834 90.21C233.991 80.7713 225.5 67.7835 225.5 53.5C225.5 39.2165 233.991 26.2287 247.834 16.79C261.675 7.35302 280.824 1.5 302 1.5C323.176 1.5 342.325 7.35302 356.166 16.79C370.009 26.2287 378.5 39.2165 378.5 53.5Z" stroke="url(#paint0_linear_86_370)" stroke-opacity="0.45"/>
<path d="M378.5 166C378.5 256.788 293.949 330.5 189.5 330.5C85.0509 330.5 0.5 256.788 0.5 166C0.5 75.2119 85.0509 1.5 189.5 1.5C293.949 1.5 378.5 75.2119 378.5 166Z" stroke="url(#paint1_linear_86_370)" stroke-opacity="0.45"/>
<path d="M378.5 125C378.5 193.127 312.326 248.5 230.5 248.5C148.674 248.5 82.5 193.127 82.5 125C82.5 56.8735 148.674 1.5 230.5 1.5C312.326 1.5 378.5 56.8735 378.5 125Z" stroke="url(#paint2_linear_86_370)" stroke-opacity="0.45"/>
<path d="M378.5 72C378.5 91.4116 367.918 109.025 350.73 121.803C333.543 134.582 309.775 142.5 283.5 142.5C257.225 142.5 233.457 134.582 216.27 121.803C199.082 109.025 188.5 91.4116 188.5 72C188.5 52.5885 199.082 34.9749 216.27 22.1967C233.457 9.41846 257.225 1.5 283.5 1.5C309.775 1.5 333.543 9.41846 350.73 22.1967C367.918 34.9749 378.5 52.5885 378.5 72Z" stroke="url(#paint3_linear_86_370)" stroke-opacity="0.45"/>
<path d="M378.5 96.5C378.5 148.867 325.111 191.5 259 191.5C192.889 191.5 139.5 148.867 139.5 96.5C139.5 44.1334 192.889 1.5 259 1.5C325.111 1.5 378.5 44.1334 378.5 96.5Z" stroke="url(#paint4_linear_86_370)" stroke-opacity="0.45"/>
<path d="M251.252 40.3523C264.255 1.11956 291.947 -7.11447 331.326 5.93667C370.704 18.9878 399.293 59.1864 386.29 98.4191C373.287 137.652 326.221 136.094 286.842 123.042C247.463 109.991 238.249 79.5851 251.252 40.3523Z" fill="#F9C80E"/>
<path d="M359.713 187.388C385.058 202.021 386.804 222.402 372.116 247.841C357.429 273.28 325.461 287.351 300.116 272.718C274.772 258.085 282.59 225.67 297.277 200.231C311.964 174.792 334.368 172.755 359.713 187.388Z" fill="#F9C80E"/>
<defs>
<linearGradient id="paint0_linear_86_370" x1="302" y1="1" x2="302" y2="106" gradientUnits="userSpaceOnUse">
<stop stop-color="white" stop-opacity="0.5"/>
<stop offset="1" stop-color="white" stop-opacity="0.25"/>
</linearGradient>
<linearGradient id="paint1_linear_86_370" x1="189.5" y1="1" x2="189.5" y2="331" gradientUnits="userSpaceOnUse">
<stop stop-color="white" stop-opacity="0.5"/>
<stop offset="1" stop-color="white" stop-opacity="0.25"/>
</linearGradient>
<linearGradient id="paint2_linear_86_370" x1="230.5" y1="1" x2="230.5" y2="249" gradientUnits="userSpaceOnUse">
<stop stop-color="white" stop-opacity="0.5"/>
<stop offset="1" stop-color="white" stop-opacity="0.25"/>
</linearGradient>
<linearGradient id="paint3_linear_86_370" x1="283.5" y1="1" x2="283.5" y2="143" gradientUnits="userSpaceOnUse">
<stop stop-color="white" stop-opacity="0.5"/>
<stop offset="1" stop-color="white" stop-opacity="0.25"/>
</linearGradient>
<linearGradient id="paint4_linear_86_370" x1="259" y1="1" x2="259" y2="192" gradientUnits="userSpaceOnUse">
<stop stop-color="white" stop-opacity="0.5"/>
<stop offset="1" stop-color="white" stop-opacity="0.25"/>
</linearGradient>
</defs>
</svg>
