<svg width="27" height="27" viewBox="0 0 27 27" fill="none" xmlns="http://www.w3.org/2000/svg">
<path d="M18.6257 14.5195L18.1133 15.0289C18.1133 15.0289 16.8954 16.2399 13.571 12.9344C10.2466 9.62889 11.4645 8.4179 11.4645 8.4179L11.7872 8.09706C12.5821 7.3067 12.657 6.03778 11.9635 5.11142L10.5449 3.21647C9.68656 2.06991 8.02795 1.91846 7.04413 2.89669L5.27833 4.65246C4.79051 5.13752 4.4636 5.76629 4.50325 6.46382C4.60467 8.2483 5.41205 12.0878 9.91728 16.5674C14.6949 21.3179 19.1776 21.5066 21.0108 21.3357C21.5907 21.2817 22.0949 20.9864 22.5012 20.5823L24.0994 18.9934C25.1782 17.9207 24.874 16.0818 23.4937 15.3315L21.3444 14.1631C20.4381 13.6704 19.334 13.8151 18.6257 14.5195Z" fill="white"/>
</svg>
