<svg width="29" height="34" viewBox="0 0 29 34" fill="none" xmlns="http://www.w3.org/2000/svg">
<path d="M11.4086 3.32709C11.6446 3.05047 12.0271 3.05047 12.263 3.32709L14.4324 5.87043L16.5959 3.3339C16.8318 3.05728 17.2144 3.05728 17.4503 3.3339C17.6862 3.61053 17.6862 4.05901 17.4503 4.33564L15.2868 6.87217L17.3896 9.33752C17.6255 9.61412 17.6255 10.0626 17.3896 10.3392C17.1537 10.6158 16.7711 10.6158 16.5352 10.3392L14.4324 7.87389L12.3238 10.346C12.0878 10.6226 11.7053 10.6226 11.4694 10.346C11.2334 10.0694 11.2334 9.62092 11.4694 9.34432L13.578 6.87217L11.4086 4.32882C11.1727 4.05221 11.1727 3.60371 11.4086 3.32709Z" fill="white"/>
<path fill-rule="evenodd" clip-rule="evenodd" d="M14.4155 10.6613C14.5395 10.6129 14.6735 10.6129 14.7975 10.6613L23.726 14.15C23.846 14.1905 23.9552 14.2744 24.0356 14.3955L26.4542 18.035C26.5748 18.2164 26.6127 18.4552 26.5559 18.6754C26.5171 18.826 26.4371 18.9551 26.3309 19.045L17.0271 22.6779L15.0831 19.7524C14.9685 19.58 14.7924 19.4792 14.606 19.4795C14.4195 19.4797 14.2436 19.5807 14.1293 19.7534L12.1958 22.6733L2.86525 19.0242C2.77064 18.9358 2.69952 18.8148 2.66356 18.6754C2.60678 18.4552 2.64471 18.2164 2.76527 18.035L5.14031 14.4609C5.21298 14.3219 5.32613 14.2128 5.46455 14.1588L14.4155 10.6613ZM21.6466 14.8308L14.6089 17.5806L7.56889 14.8298L14.6065 12.08L21.6466 14.8308Z" fill="#606060"/>
<path d="M17.0039 24.1801L24.1613 21.3853L24.161 26.0402C24.161 26.9548 23.6618 27.7668 22.9217 28.056L15.2107 31.0695V22.2494L16.3363 23.9434C16.4936 24.1801 16.761 24.2749 17.0039 24.1801Z" fill="#606060"/>
<path d="M14.0022 22.2553V31.0697L6.29113 28.0562C5.55103 27.767 5.05182 26.955 5.05177 26.0404L5.05151 21.3728L12.2192 24.176C12.4625 24.2711 12.7304 24.1759 12.8876 23.9385L14.0022 22.2553Z" fill="#606060"/>
</svg>
