<svg width="53" height="26" viewBox="0 0 53 26" fill="none" xmlns="http://www.w3.org/2000/svg">
<path fill-rule="evenodd" clip-rule="evenodd" d="M42.2578 18.59L48.5834 12.9285L45.5871 7.07156L42.2578 18.59Z" fill="#097939"/>
<path fill-rule="evenodd" clip-rule="evenodd" d="M40.127 18.59L46.4525 12.9285L43.4562 7.07156L40.127 18.59Z" fill="#ED752E"/>
<path fill-rule="evenodd" clip-rule="evenodd" d="M9.89758 7.137L7.23433 16.4428L16.6891 16.5078L19.2861 7.137H21.683L18.5693 18.031C18.45 18.447 17.996 18.785 17.5556 18.785H5.43675C4.70181 18.785 4.26633 18.2217 4.46508 17.5283L7.43485 7.137H9.89758ZM39.128 7.072H41.5249L38.1956 18.785H35.7311L39.128 7.072ZM21.9498 11.9522L33.9348 11.8872L34.7343 9.41417H22.5487L23.281 7.13657L36.266 7.01957C37.0742 7.0122 37.5556 7.62623 37.3427 8.39193L36.1193 12.779C35.906 13.5443 35.077 14.1644 34.2687 14.1644H23.5477L22.2837 18.98H19.9517L21.9498 11.9522Z" fill="#747474"/>
</svg>
