<svg width="23" height="23" viewBox="0 0 23 23" fill="none" xmlns="http://www.w3.org/2000/svg">
<path d="M22.1376 0.366122C21.6494 -0.122041 20.8579 -0.122041 20.3698 0.366122L11.2518 9.48411L2.13388 0.366122C1.64573 -0.122041 0.854272 -0.122041 0.366122 0.366122C-0.122041 0.854272 -0.122041 1.64573 0.366122 2.13388L9.48407 11.2519L0.366147 20.3697C-0.122016 20.858 -0.122016 21.6494 0.366147 22.1376C0.854297 22.6257 1.64576 22.6257 2.13391 22.1376L11.2518 13.0196L20.3698 22.1376C20.8579 22.6257 21.6494 22.6257 22.1376 22.1376C22.6257 21.6494 22.6257 20.858 22.1376 20.3699L13.0196 11.2519L22.1376 2.13388C22.6257 1.64573 22.6257 0.854272 22.1376 0.366122Z" fill="#C6C6C6"/>
</svg>
