<svg width="22" height="22" viewBox="0 0 22 22" fill="none" xmlns="http://www.w3.org/2000/svg">
<path fill-rule="evenodd" clip-rule="evenodd" d="M2.44444 1.375C2.44444 0.615615 1.89723 0 1.22222 0C0.547213 0 0 0.615615 0 1.375V4.12477C0 4.12461 0 4.12492 0 4.12477V20.625C0 21.3844 0.547213 22 1.22222 22H20.7778C21.4528 22 22 21.3844 22 20.625C22 19.8656 21.4528 19.25 20.7778 19.25H2.44444V7.44454L6.46909 11.9723C6.9464 12.5092 7.72026 12.5092 8.19758 11.9723L12.2222 7.44454L17.8271 13.75H14.6667C13.9916 13.75 13.4444 14.3656 13.4444 15.125C13.4444 15.8844 13.9916 16.5 14.6667 16.5H20.7778C21.4528 16.5 22 15.8844 22 15.125V8.25C22 7.49061 21.4528 6.875 20.7778 6.875C20.1027 6.875 19.5556 7.49061 19.5556 8.25V11.8055L13.0865 4.52772C12.6092 3.99076 11.8353 3.99076 11.358 4.52772L7.33333 9.05548L2.44444 3.55546V1.375Z" fill="#606060"/>
</svg>
