<svg width="21" height="15" viewBox="0 0 21 15" fill="none" xmlns="http://www.w3.org/2000/svg">
<path opacity="0.3" d="M20.8005 6.99992C20.7701 6.92787 20.0339 5.21437 18.3972 3.49722C16.2164 1.20921 13.462 0 10.4302 0C7.39851 0 4.64406 1.20921 2.46327 3.49722C0.826588 5.21437 0.0869104 6.93061 0.0599656 6.99992C0.020429 7.09322 0 7.19418 0 7.29629C0 7.3984 0.020429 7.49936 0.0599656 7.59267C0.0903871 7.66471 0.826588 9.3773 2.46327 11.0944C4.64406 13.3815 7.39851 14.5908 10.4302 14.5908C13.462 14.5908 16.2164 13.3815 18.3972 11.0944C20.0339 9.3773 20.7701 7.66471 20.8005 7.59267C20.84 7.49936 20.8605 7.3984 20.8605 7.29629C20.8605 7.19418 20.84 7.09322 20.8005 6.99992ZM10.4302 10.9431C9.7426 10.9431 9.0704 10.7291 8.49866 10.3283C7.92691 9.92751 7.48128 9.35782 7.21814 8.69129C6.95499 8.02476 6.88614 7.29133 7.02029 6.58375C7.15444 5.87617 7.48557 5.22621 7.9718 4.71607C8.45803 4.20593 9.07753 3.85853 9.75195 3.71778C10.4264 3.57703 11.1254 3.64927 11.7607 3.92535C12.396 4.20144 12.939 4.66897 13.321 5.26883C13.7031 5.86869 13.907 6.57393 13.907 7.29538C13.907 8.26281 13.5407 9.19061 12.8887 9.87469C12.2366 10.5588 11.3523 10.9431 10.4302 10.9431Z" fill="black"/>
</svg>
