<svg width="30" height="30" viewBox="0 0 30 30" fill="none" xmlns="http://www.w3.org/2000/svg">
<path d="M25.4271 21.96H23.4773V20.9959C23.4773 20.5882 23.9632 20.1818 24.449 20.1818H24.6169C25.1092 20.1818 25.5999 20.5882 25.5999 20.9959V21.96H25.4271ZM17.9263 19.9091C17.4405 19.9091 16.9482 20.1818 16.9482 20.5882V25.2314C16.9482 25.6377 17.2824 25.9132 17.9263 25.9132C18.417 25.9132 18.9077 25.6377 18.9077 25.2314V20.4586C18.9045 20.1818 18.417 19.9091 17.9263 19.9091ZM30 17.3182V26.1777C30 28.365 27.7144 30 25.1043 30H4.88751C2.2791 30 0 28.2273 0 26.1777V17.3182C0 15.1377 2.12097 13.4973 4.88751 13.4973H24.9446C27.7144 13.4973 30 15.1391 30 17.3182ZM6.35801 27.1418V17.8568H8.80502V16.5041H2.12097V17.8568H4.23867V27.2645L6.35801 27.1418ZM13.6958 19.2327H11.7346V25.3582C11.7346 25.6364 11.4134 25.7686 11.0874 25.7686C10.9227 25.7686 10.595 25.6364 10.595 25.23V19.0855H8.47571V25.6364C8.47571 26.0427 8.47571 26.5855 8.96642 26.8623C9.94783 27.405 11.7346 26.7314 12.0655 25.9118V26.9959H13.6958V19.2327ZM20.3766 24.8209V20.7273C20.3766 19.0868 18.9077 18.1377 17.1193 19.4973V16.3623H14.9967V26.9973H16.6286L16.7982 26.3223C19.0805 28.0882 20.3766 26.8636 20.3766 24.8209ZM26.8927 24.2727H25.2788V25.2314C25.2788 25.6377 24.9446 25.9132 24.449 25.9132H24.1262C23.6338 25.9132 23.3208 25.6377 23.3208 25.2314V23.3209H26.8927V20.0536C26.5781 18.5482 24.1262 18.2686 22.8301 19.0909C22.4992 19.3664 22.165 19.6432 22.015 20.0536C21.8471 20.4627 21.6775 20.9959 21.6775 21.8182V24.2727C21.6775 28.4945 27.3834 27.9614 26.8927 24.2727ZM18.9045 10.9077C19.0789 11.1845 19.2321 11.3168 19.3984 11.4518C19.568 11.5936 19.8891 11.5936 20.2152 11.5936C20.5478 11.5936 20.701 11.4518 21.0368 11.3168C21.195 11.1845 21.5259 10.9077 21.6824 10.6377V11.3168H23.9664V3.13773H22.1666V9.54409C22.1666 9.95455 21.8536 10.2286 21.3613 10.2286C20.8706 10.2286 20.5494 9.95455 20.5494 9.54409V3.27273H18.5963V10.2286C18.748 10.4973 18.748 10.6377 18.9045 10.9077ZM11.8992 6.27545C11.8992 5.45727 11.8993 4.91182 12.0672 4.365C12.2253 3.95591 12.5579 3.54818 12.8807 3.27682C13.3567 2.99714 13.9278 2.85321 14.5093 2.86636C14.9984 2.86636 15.4842 3 15.8184 3.13909C16.1396 3.27682 16.464 3.54818 16.6303 3.81818C16.7998 4.095 16.9482 4.365 17.121 4.64045C17.121 4.91182 17.2873 5.32227 17.2873 6.00136V8.18182C17.2873 9.00273 17.2873 9.54409 17.121 9.82091C17.121 10.2286 16.9514 10.4973 16.6303 10.7727C16.444 11.0601 16.162 11.296 15.8184 11.4518C15.4122 11.6243 14.9647 11.718 14.5093 11.7259C14.0235 11.7259 13.5328 11.7259 13.2051 11.5909C12.8807 11.4505 12.5579 11.3141 12.39 11.0468C12.1991 10.7379 12.0362 10.4175 11.9025 10.0882C11.7362 9.68045 11.7362 9.13364 11.7362 8.45591L11.8992 6.27545ZM13.6958 9.54409C13.6958 9.95455 14.1865 10.3664 14.6756 10.3664C15.1663 10.3664 15.6472 9.95455 15.6472 9.54409V5.17909C15.6472 4.76864 15.1663 4.36227 14.6756 4.36227C14.1865 4.36227 13.6958 4.76864 13.6958 5.17909V9.54409ZM7.33779 11.7273H9.45712V5.45591L12.0655 0H9.61526L8.31594 4.09227L6.84708 0H4.56635L7.33779 5.45591V11.7273Z" fill="#797979"/>
</svg>
